<svg width="320" height="320" viewBox="0 0 320 320" fill="none" xmlns="http://www.w3.org/2000/svg">
  <defs>
    <linearGradient id="avatar-bg" x1="44" y1="32" x2="270" y2="300" gradientUnits="userSpaceOnUse">
      <stop stop-color="#F1C27D"/>
      <stop offset="1" stop-color="#E38A4D"/>
    </linearGradient>
    <linearGradient id="avatar-shirt" x1="88" y1="176" x2="236" y2="292" gradientUnits="userSpaceOnUse">
      <stop stop-color="#245E59"/>
      <stop offset="1" stop-color="#123432"/>
    </linearGradient>
  </defs>
  <circle cx="160" cy="160" r="156" fill="#101414"/>
  <circle cx="160" cy="160" r="146" fill="url(#avatar-bg)"/>
  <ellipse cx="160" cy="210" rx="82" ry="62" fill="url(#avatar-shirt)"/>
  <path d="M115 115C115 90.1472 135.147 70 160 70C184.853 70 205 90.1472 205 115V142C205 166.853 184.853 187 160 187C135.147 187 115 166.853 115 142V115Z" fill="#F6D3AE"/>
  <path d="M109 118C109 85.4152 135.415 59 168 59C200.585 59 227 85.4152 227 118V128H109V118Z" fill="#1A1A1A"/>
  <path d="M102 120C102 95.1472 122.147 75 147 75H167C191.853 75 212 95.1472 212 120V129H102V120Z" fill="#232323"/>
  <circle cx="143.5" cy="136.5" r="5.5" fill="#2A1E18"/>
  <circle cx="180.5" cy="136.5" r="5.5" fill="#2A1E18"/>
  <path d="M147 157C153.276 163.606 165.724 163.606 172 157" stroke="#A76443" stroke-width="5" stroke-linecap="round"/>
  <circle cx="250" cy="92" r="24" fill="#FFF6E8" fill-opacity="0.16"/>
  <circle cx="71" cy="240" r="18" fill="#FFF6E8" fill-opacity="0.12"/>
</svg>
